<?xml version="1.0" encoding="UTF-8" standalone="no"?>
<!DOCTYPE svg PUBLIC "-//W3C//DTD SVG 1.1//EN" "http://www.w3.org/Graphics/SVG/1.1/DTD/svg11.dtd">
<svg xmlns="http://www.w3.org/2000/svg" version="1.1" viewBox="0.00 0.00 588.00 488.00">
<path fill="#201b21" d="
  M 337.06 58.84
  L 337.09 63.21
  Q 336.55 66.33 337.11 69.82
  C 330.36 69.79 273.98 70.54 272.69 69.20
  Q 273.46 62.26 272.66 55.53
  A 1.37 1.36 -3.5 0 1 274.02 54.00
  L 335.98 54.00
  A 1.07 1.07 0.0 0 1 336.99 55.43
  Q 336.35 57.23 337.06 58.84
  Z"
/>
<path fill="#47b8fa" d="
  M 337.06 58.84
  Q 339.29 60.81 337.09 63.21
  L 337.06 58.84
  Z"
/>
<path fill="#ffffff" d="
  M 272.69 69.20
  C 273.98 70.54 330.36 69.79 337.11 69.82
  L 337.25 85.20
  Q 337.25 85.75 337.80 85.76
  L 353.18 85.91
  L 353.26 117.20
  Q 353.26 117.75 353.80 117.75
  L 369.02 117.88
  L 369.21 133.21
  Q 369.22 133.75 369.76 133.75
  L 384.25 133.75
  Q 384.75 133.75 384.75 133.25
  L 384.75 118.71
  Q 384.75 118.30 384.43 118.05
  L 384.22 117.90
  Q 384.15 117.15 384.69 117.19
  C 385.53 118.11 398.77 117.83 401.13 117.92
  L 401.25 133.20
  Q 401.26 133.75 401.81 133.76
  L 417.20 133.94
  L 417.26 181.20
  Q 417.26 181.75 417.81 181.75
  L 433.08 181.90
  L 433.24 213.20
  Q 433.24 213.75 433.79 213.75
  L 449.01 213.87
  L 449.21 229.21
  Q 449.22 229.75 449.76 229.75
  L 464.23 229.75
  Q 464.71 229.75 464.71 229.27
  L 464.60 213.89
  Q 464.58 213.75 464.55 213.61
  L 480.21 213.70
  Q 480.72 213.71 480.71 213.20
  L 480.60 197.90
  Q 480.56 197.79 480.52 197.68
  L 497.20 197.93
  L 497.26 245.20
  Q 497.26 245.75 497.81 245.75
  L 513.02 245.88
  L 513.21 261.21
  Q 513.22 261.75 513.76 261.75
  L 528.25 261.75
  Q 528.75 261.75 528.75 261.25
  L 528.75 246.71
  Q 528.75 246.30 528.42 246.05
  L 528.22 245.90
  Q 528.15 245.15 528.69 245.19
  C 529.51 246.10 542.76 245.84 545.19 245.95
  Q 545.30 269.62 545.25 293.18
  C 545.25 293.54 545.64 294.46 546.03 294.07
  Q 545.85 294.87 545.09 295.05
  C 544.57 293.77 533.52 294.22 529.70 294.33
  Q 529.25 294.35 529.25 294.80
  L 529.25 309.22
  Q 529.25 309.60 529.52 309.87
  Q 529.92 310.25 529.68 310.63
  Q 521.84 309.88 513.73 310.37
  Q 513.23 310.40 513.23 310.90
  L 513.26 325.26
  Q 513.26 325.77 513.78 325.78
  L 529.11 325.91
  L 529.25 341.20
  Q 529.25 341.75 529.81 341.76
  L 545.11 341.93
  C 545.20 344.75 544.64 356.89 545.74 358.45
  C 544.68 359.99 545.39 370.52 545.35 374.31
  L 513.68 374.26
  Q 513.22 374.26 513.22 374.72
  L 513.26 389.25
  Q 513.27 389.62 513.54 389.86
  Q 513.85 390.12 513.71 390.72
  Q 513.70 390.56 513.69 390.41
  L 481.68 390.26
  Q 481.22 390.26 481.22 390.72
  L 481.26 405.25
  Q 481.27 405.64 481.55 405.90
  Q 481.95 406.27 481.63 406.80
  C 480.52 406.54 479.64 406.24 478.44 406.24
  Q 463.97 406.25 449.51 406.26
  Q 449.18 406.26 448.93 406.46
  L 448.59 406.75
  Q 448.31 406.57 448.24 406.13
  Q 448.74 406.52 448.74 405.74
  Q 448.78 398.28 448.73 390.74
  Q 448.73 390.25 448.24 390.25
  L 433.78 390.25
  Q 433.25 390.25 433.25 390.78
  L 433.25 405.29
  Q 433.25 405.74 433.60 406.02
  Q 433.89 406.25 434.00 406.11
  Q 433.91 406.73 433.59 406.74
  Q 433.05 406.81 432.47 406.49
  A 2.02 1.95 -29.8 0 0 431.52 406.25
  L 401.73 406.25
  Q 401.22 406.25 401.22 406.76
  L 401.26 421.29
  Q 401.27 421.69 401.56 421.96
  Q 402.09 422.44 402.01 422.03
  Q 401.96 422.69 401.55 422.79
  C 400.49 422.52 399.63 422.24 398.46 422.24
  Q 368.08 422.26 337.70 422.25
  Q 337.29 422.25 337.00 422.54
  Q 336.75 422.80 336.59 422.75
  Q 336.27 422.52 336.20 422.08
  L 336.55 421.99
  Q 336.75 421.94 336.75 421.73
  L 336.75 406.75
  Q 336.75 406.25 336.25 406.25
  L 305.75 406.25
  Q 305.30 406.25 304.98 406.56
  Q 304.74 406.80 304.59 406.75
  Q 304.30 406.52 304.21 406.15
  Q 304.29 406.05 304.56 405.97
  A 0.26 0.25 82.8 0 0 304.75 405.72
  L 304.75 390.75
  Q 304.75 390.25 304.25 390.25
  L 289.73 390.25
  Q 289.22 390.25 289.22 390.76
  L 289.26 405.25
  A 0.98 0.94 -69.6 0 0 289.55 405.92
  Q 289.91 406.26 289.67 406.59
  L 273.78 406.32
  Q 273.23 406.31 273.23 406.85
  L 273.26 421.40
  A 0.81 0.80 -80.3 0 0 273.79 422.16
  Q 273.94 422.21 274.02 422.06
  Q 273.92 422.55 273.70 422.82
  C 272.54 422.54 271.64 422.24 270.42 422.24
  Q 248.06 422.26 225.70 422.25
  Q 225.29 422.25 225.00 422.54
  Q 224.75 422.81 224.59 422.75
  Q 224.27 422.52 224.20 422.08
  L 224.54 421.99
  Q 224.75 421.94 224.75 421.73
  L 224.75 406.75
  Q 224.75 406.25 224.25 406.25
  L 193.57 406.25
  Q 193.20 406.25 192.91 406.49
  L 192.59 406.75
  Q 192.29 406.53 192.20 406.12
  L 192.57 405.97
  Q 192.75 405.90 192.75 405.71
  L 192.75 390.75
  Q 192.75 390.25 192.25 390.25
  L 177.57 390.25
  Q 177.20 390.25 176.91 390.49
  L 176.59 390.75
  Q 176.28 390.54 176.20 390.05
  Q 176.06 390.26 176.47 390.02
  Q 176.75 389.85 176.75 389.52
  L 176.75 374.78
  Q 176.75 374.25 176.22 374.25
  L 129.57 374.25
  Q 129.20 374.25 128.91 374.49
  L 128.59 374.75
  Q 128.29 374.53 128.20 374.12
  L 128.57 373.97
  Q 128.75 373.90 128.75 373.71
  L 128.75 342.78
  Q 128.75 342.25 128.22 342.25
  L 113.27 342.25
  Q 113.08 342.25 113.03 342.43
  Q 112.91 342.84 112.72 342.75
  Q 112.33 342.71 112.21 342.11
  L 112.57 341.97
  A 0.28 0.28 0.0 0 0 112.75 341.71
  L 112.75 326.75
  Q 112.75 326.25 112.25 326.25
  L 97.75 326.25
  Q 97.30 326.25 96.98 326.57
  Q 96.74 326.80 96.59 326.75
  Q 96.29 326.52 96.20 326.12
  L 96.50 326.00
  Q 96.75 325.90 96.75 325.63
  L 96.75 310.78
  Q 96.75 310.25 96.22 310.25
  L 81.51 310.25
  Q 81.18 310.25 81.03 310.55
  Q 80.90 310.83 80.59 310.75
  Q 80.29 310.53 80.20 310.12
  L 80.57 309.97
  Q 80.75 309.90 80.75 309.71
  L 80.75 294.75
  Q 80.75 294.25 80.25 294.25
  L 65.57 294.25
  Q 65.20 294.25 64.91 294.49
  L 64.59 294.75
  Q 64.29 294.53 64.20 294.12
  L 64.56 293.98
  Q 64.75 293.90 64.75 293.71
  L 64.75 262.62
  Q 64.75 262.29 64.48 262.09
  L 64.22 261.91
  Q 64.16 261.11 64.68 261.21
  L 65.13 261.49
  A 1.74 1.72 60.5 0 0 66.04 261.75
  L 96.24 261.75
  Q 96.71 261.75 96.70 261.28
  L 96.60 246.01
  Q 95.81 237.25 96.58 229.49
  L 112.22 229.70
  Q 112.72 229.70 112.71 229.20
  L 112.60 213.90
  Q 112.58 213.75 112.55 213.61
  L 128.28 213.70
  Q 128.75 213.70 128.75 213.24
  L 128.75 198.62
  Q 128.75 198.28 128.48 198.09
  L 128.22 197.91
  Q 128.16 197.11 128.68 197.21
  L 129.14 197.49
  A 1.68 1.64 60.7 0 0 130.03 197.75
  L 176.24 197.75
  Q 176.73 197.75 176.73 197.26
  L 176.74 182.01
  Q 176.98 182.04 177.01 181.74
  L 192.21 181.74
  Q 192.72 181.74 192.71 181.23
  L 192.60 165.90
  Q 192.58 165.75 192.55 165.61
  L 208.28 165.70
  Q 208.75 165.70 208.75 165.24
  L 208.75 150.62
  Q 208.75 150.28 208.47 150.09
  L 208.22 149.91
  Q 208.17 149.23 208.53 149.20
  L 209.30 149.56
  Q 209.71 149.75 210.17 149.75
  L 224.25 149.75
  Q 224.75 149.75 224.75 149.25
  L 224.75 102.62
  Q 224.75 102.29 224.48 102.09
  L 224.22 101.91
  Q 224.16 101.11 224.69 101.21
  L 225.13 101.49
  A 1.76 1.66 59.6 0 0 226.03 101.75
  L 256.24 101.75
  Q 256.71 101.75 256.71 101.28
  L 256.60 85.94
  Q 256.57 85.77 256.55 85.61
  L 272.28 85.70
  Q 272.75 85.70 272.75 85.24
  L 272.75 70.62
  Q 272.75 70.28 272.48 70.09
  L 272.22 69.91
  Q 272.15 69.14 272.69 69.20
  Z
  M 322.03 149.50
  L 335.75 149.48
  A 0.69 0.69 0.0 0 0 336.44 148.79
  L 336.42 135.02
  A 0.54 0.51 89.9 0 0 335.91 134.48
  L 321.83 134.50
  A 0.54 0.51 89.9 0 0 321.32 135.04
  L 321.34 148.81
  A 0.69 0.69 0.0 0 0 322.03 149.50
  Z
  M 257.31 150.80
  L 257.39 165.38
  A 0.22 0.22 0.0 0 0 257.61 165.60
  L 287.29 165.44
  A 1.18 0.51 -0.3 0 0 288.47 164.93
  L 288.39 150.93
  A 1.18 0.51 -0.3 0 0 287.21 150.42
  L 257.53 150.58
  A 0.22 0.22 0.0 0 0 257.31 150.80
  Z
  M 352.3239 151.1007
  A 0.60 0.60 0.0 0 0 351.7208 150.5038
  L 337.8610 150.5764
  A 0.60 0.60 0.0 0 0 337.2641 151.1795
  L 337.3361 164.9193
  A 0.60 0.60 0.0 0 0 337.9392 165.5162
  L 351.7990 165.4436
  A 0.60 0.60 0.0 0 0 352.3959 164.8405
  L 352.3239 151.1007
  Z
  M 241.91 181.48
  L 255.77 181.52
  A 0.61 0.61 0.0 0 0 256.39 180.92
  L 256.43 168.17
  A 1.66 1.26 -89.8 0 0 255.18 166.50
  L 242.62 166.46
  A 1.66 1.26 -89.8 0 0 241.35 168.11
  L 241.31 180.86
  A 0.61 0.61 0.0 0 0 241.91 181.48
  Z
  M 129.35 311.12
  L 129.39 324.92
  A 0.60 0.60 0.0 0 0 130.00 325.51
  L 143.59 325.47
  A 2.72 0.93 89.8 0 0 144.51 322.74
  L 144.47 313.18
  A 2.72 0.93 89.8 0 0 143.53 310.47
  L 129.94 310.51
  A 0.60 0.60 0.0 0 0 129.35 311.12
  Z
  M 321.68 325.57
  L 336.10 325.49
  A 0.29 0.29 0.0 0 0 336.39 325.20
  L 336.31 311.13
  A 0.68 0.51 89.7 0 0 335.80 310.45
  L 321.82 310.53
  A 0.68 0.51 89.7 0 0 321.31 311.21
  L 321.39 325.28
  A 0.29 0.29 0.0 0 0 321.68 325.57
  Z
  M 160.3315 327.0276
  A 0.55 0.55 0.0 0 0 159.7777 326.4815
  L 145.8180 326.5789
  A 0.55 0.55 0.0 0 0 145.2719 327.1327
  L 145.3685 340.9724
  A 0.55 0.55 0.0 0 0 145.9223 341.5185
  L 159.8820 341.4211
  A 0.55 0.55 0.0 0 0 160.4281 340.8673
  L 160.3315 327.0276
  Z
  M 192.73 342.50
  L 162.30 342.53
  Q 160.96 342.54 161.11 343.87
  Q 161.82 349.96 161.17 356.06
  Q 161.01 357.49 162.45 357.49
  L 208.47 357.51
  Q 208.88 357.51 208.92 357.91
  Q 209.21 360.49 209.67 363.01
  C 210.28 366.41 208.78 369.66 209.34 372.91
  Q 209.44 373.47 210.01 373.47
  L 240.28 373.52
  Q 240.81 373.52 240.90 374.05
  Q 242.08 381.08 241.15 388.15
  Q 240.98 389.47 242.31 389.48
  L 271.71 389.51
  Q 272.15 389.51 272.19 389.07
  Q 272.90 381.63 272.06 374.20
  Q 271.98 373.50 272.68 373.50
  L 303.72 373.50
  Q 304.15 373.50 304.19 373.07
  Q 304.90 365.54 304.04 358.01
  A 0.46 0.46 0.0 0 1 304.50 357.50
  L 320.44 357.50
  Q 320.80 357.50 320.88 357.85
  Q 322.43 364.87 321.05 371.97
  A 1.24 1.24 0.0 0 0 322.27 373.45
  L 336.29 373.52
  Q 336.83 373.53 336.93 374.05
  Q 338.34 381.01 337.09 388.07
  A 1.21 1.21 0.0 0 0 338.28 389.48
  L 383.85 389.51
  Q 384.47 389.51 384.46 388.90
  L 384.24 373.88
  Q 384.24 373.50 384.62 373.50
  L 399.84 373.50
  Q 400.44 373.50 400.44 372.90
  L 400.35 359.14
  A 0.65 0.65 0.0 0 0 399.70 358.50
  L 336.75 358.50
  Q 336.25 358.50 336.25 358.00
  L 336.25 343.00
  Q 336.25 342.50 335.75 342.50
  L 320.85 342.50
  Q 320.45 342.50 320.45 342.10
  L 320.37 327.21
  A 0.72 0.71 0.0 0 0 319.65 326.50
  L 305.93 326.50
  Q 305.36 326.50 305.36 327.07
  L 305.25 341.89
  Q 305.24 342.52 304.61 342.52
  L 274.45 342.49
  Q 273.38 342.49 273.37 343.56
  L 273.23 357.90
  Q 273.23 358.52 272.61 358.52
  L 224.75 358.49
  Q 224.25 358.49 224.25 358.00
  L 224.25 343.00
  Q 224.25 342.50 223.75 342.50
  L 208.85 342.50
  Q 208.45 342.50 208.45 342.10
  L 208.37 327.06
  A 0.56 0.56 0.0 0 0 207.81 326.50
  L 194.45 326.50
  A 1.07 1.07 0.0 0 0 193.38 327.56
  L 193.22 342.02
  Q 193.21 342.50 192.73 342.50
  Z
  M 415.73 357.60
  L 415.98 357.75
  Q 416.40 358.00 416.40 357.52
  L 416.38 343.07
  Q 416.38 342.50 415.82 342.50
  L 401.77 342.50
  A 0.53 0.52 90.0 0 0 401.25 343.03
  C 401.26 346.85 402.31 353.74 401.09 357.10
  Q 400.89 357.66 401.49 357.63
  Q 408.55 357.35 415.57 357.56
  Q 415.66 357.56 415.73 357.60
  Z"
/>
<path fill="#201b21" d="
  M 272.22 69.91
  L 272.48 70.09
  Q 272.75 70.28 272.75 70.62
  L 272.75 85.24
  Q 272.75 85.70 272.28 85.70
  L 256.55 85.61
  Q 257.46 78.35 256.67 71.50
  A 1.38 1.38 0.0 0 1 258.04 69.96
  L 272.22 69.91
  Z"
/>
<path fill="#201b21" d="
  M 337.11 69.82
  L 351.90 69.97
  A 1.15 1.14 9.9 0 1 352.97 71.49
  Q 352.36 73.27 353.06 74.84
  L 353.11 79.20
  Q 352.48 82.30 353.18 85.91
  L 337.80 85.76
  Q 337.25 85.75 337.25 85.20
  L 337.11 69.82
  Z"
/>
<path fill="#47b8fa" d="
  M 353.06 74.84
  Q 355.27 76.79 353.11 79.20
  L 353.06 74.84
  Z"
/>
<path fill="#201b21" d="
  M 256.60 85.94
  L 256.71 101.28
  Q 256.71 101.75 256.24 101.75
  L 226.03 101.75
  A 1.76 1.66 59.6 0 1 225.13 101.49
  L 224.69 101.21
  Q 225.45 94.30 224.66 87.60
  A 1.48 1.47 -3.5 0 1 226.12 85.96
  L 256.60 85.94
  Z"
/>
<path fill="#201b21" d="
  M 353.18 85.91
  L 367.90 85.99
  A 1.13 1.13 0.0 0 1 368.96 87.50
  Q 368.38 89.16 369.23 90.82
  L 369.13 95.38
  L 369.02 117.88
  L 353.80 117.75
  Q 353.26 117.75 353.26 117.20
  L 353.18 85.91
  Z"
/>
<path fill="#47b8fa" d="
  M 369.23 90.82
  Q 370.57 93.23 369.13 95.38
  L 369.23 90.82
  Z"
/>
<path fill="#201b21" d="
  M 224.22 101.91
  L 224.48 102.09
  Q 224.75 102.29 224.75 102.62
  L 224.75 149.25
  Q 224.75 149.75 224.25 149.75
  L 210.17 149.75
  Q 209.71 149.75 209.30 149.56
  L 208.53 149.20
  Q 208.72 148.61 208.73 147.93
  Q 209.13 125.38 208.91 103.21
  A 1.24 1.23 89.8 0 1 210.14 101.96
  L 224.22 101.91
  Z"
/>
<path fill="#201b21" d="
  M 401.08 106.88
  L 401.09 111.16
  Q 400.53 114.28 401.13 117.92
  C 398.77 117.83 385.53 118.11 384.69 117.19
  Q 385.46 110.22 384.64 103.39
  A 1.24 1.24 0.0 0 1 385.87 102.00
  L 399.75 102.00
  A 1.23 1.23 0.0 0 1 400.92 103.60
  Q 400.41 105.22 401.08 106.88
  Z"
/>
<path fill="#47b8fa" d="
  M 401.08 106.88
  Q 403.20 109.30 401.09 111.16
  L 401.08 106.88
  Z"
/>
<path fill="#201b21" d="
  M 384.22 117.90
  L 384.43 118.05
  Q 384.75 118.30 384.75 118.71
  L 384.75 133.25
  Q 384.75 133.75 384.25 133.75
  L 369.76 133.75
  Q 369.22 133.75 369.21 133.21
  L 369.02 117.88
  L 384.22 117.90
  Z"
/>
<path fill="#201b21" d="
  M 401.13 117.92
  L 415.90 117.99
  A 1.14 1.14 0.0 0 1 416.97 119.50
  Q 416.36 121.27 417.07 122.84
  L 417.11 127.20
  Q 416.45 130.30 417.20 133.94
  L 401.81 133.76
  Q 401.26 133.75 401.25 133.20
  L 401.13 117.92
  Z"
/>
<path fill="#47b8fa" d="
  M 417.07 122.84
  Q 419.27 124.79 417.11 127.20
  L 417.07 122.84
  Z"
/>
<path fill="#201b21" d="
  M 417.20 133.94
  L 431.95 134.06
  Q 432.62 134.06 432.70 134.72
  L 433.22 138.88
  Q 432.18 142.58 433.41 143.10
  Q 432.69 162.49 433.08 181.90
  L 417.81 181.75
  Q 417.26 181.75 417.26 181.20
  L 417.20 133.94
  Z"
/>
<path fill="#47b8fa" d="
  M 322.03 149.50
  A 0.69 0.69 0.0 0 1 321.34 148.81
  L 321.32 135.04
  A 0.54 0.51 89.9 0 1 321.83 134.50
  L 335.91 134.48
  A 0.54 0.51 89.9 0 1 336.42 135.02
  L 336.44 148.79
  A 0.69 0.69 0.0 0 1 335.75 149.48
  L 322.03 149.50
  Z"
/>
<path fill="#47b8fa" d="
  M 433.22 138.88
  Q 434.29 140.45 433.41 143.10
  Q 432.18 142.58 433.22 138.88
  Z"
/>
<path fill="#201b21" d="
  M 208.22 149.91
  L 208.47 150.09
  Q 208.75 150.28 208.75 150.62
  L 208.75 165.24
  Q 208.75 165.70 208.28 165.70
  L 192.55 165.61
  Q 193.46 158.35 192.67 151.50
  A 1.38 1.38 0.0 0 1 194.04 149.96
  L 208.22 149.91
  Z"
/>
<path fill="#47b8fa" d="
  M 257.31 150.80
  A 0.22 0.22 0.0 0 1 257.53 150.58
  L 287.21 150.42
  A 1.18 0.51 -0.3 0 1 288.39 150.93
  L 288.47 164.93
  A 1.18 0.51 -0.3 0 1 287.29 165.44
  L 257.61 165.60
  A 0.22 0.22 0.0 0 1 257.39 165.38
  L 257.31 150.80
  Z"
/>
<path fill="#47b8fa" d="
  M 352.3959 164.8405
  A 0.60 0.60 0.0 0 1 351.7990 165.4436
  L 337.9392 165.5162
  A 0.60 0.60 0.0 0 1 337.3361 164.9193
  L 337.2641 151.1795
  A 0.60 0.60 0.0 0 1 337.8610 150.5764
  L 351.7208 150.5038
  A 0.60 0.60 0.0 0 1 352.3239 151.1007
  L 352.3959 164.8405
  Z"
/>
<path fill="#201b21" d="
  M 192.60 165.90
  L 192.71 181.23
  Q 192.72 181.74 192.21 181.74
  L 177.01 181.74
  L 177.01 167.01
  A 1.05 1.05 0.0 0 1 178.06 165.96
  L 192.60 165.90
  Z"
/>
<path fill="#47b8fa" d="
  M 241.91 181.48
  A 0.61 0.61 0.0 0 1 241.31 180.86
  L 241.35 168.11
  A 1.66 1.26 -89.8 0 1 242.62 166.46
  L 255.18 166.50
  A 1.66 1.26 -89.8 0 1 256.43 168.17
  L 256.39 180.92
  A 0.61 0.61 0.0 0 1 255.77 181.52
  L 241.91 181.48
  Z"
/>
<path fill="#201b21" d="
  M 176.74 182.01
  L 176.73 197.26
  Q 176.73 197.75 176.24 197.75
  L 130.03 197.75
  A 1.68 1.64 60.7 0 1 129.14 197.49
  L 128.68 197.21
  Q 129.46 190.27 128.65 183.30
  A 1.16 1.16 0.0 0 1 129.80 182.01
  L 176.74 182.01
  Z"
/>
<path fill="#201b21" d="
  M 433.08 181.90
  L 447.74 181.99
  A 1.24 1.24 0.0 0 1 448.91 183.61
  Q 448.45 185.05 449.03 186.59
  L 449.07 192.06
  L 449.01 213.87
  L 433.79 213.75
  Q 433.24 213.75 433.24 213.20
  L 433.08 181.90
  Z"
/>
<path fill="#201b21" d="
  M 497.07 186.88
  L 497.10 191.16
  Q 496.46 194.34 497.20 197.93
  L 480.52 197.68
  Q 481.49 190.27 480.66 183.51
  A 1.35 1.35 0.0 0 1 482.00 182.00
  L 495.76 182.00
  A 1.17 1.17 0.0 0 1 496.89 183.46
  Q 496.43 185.16 497.07 186.88
  Z"
/>
<path fill="#47b8fa" d="
  M 449.03 186.59
  Q 450.64 188.67 449.07 192.06
  L 449.03 186.59
  Z"
/>
<path fill="#47b8fa" d="
  M 497.07 186.88
  Q 499.20 189.29 497.10 191.16
  L 497.07 186.88
  Z"
/>
<path fill="#201b21" d="
  M 128.22 197.91
  L 128.48 198.09
  Q 128.75 198.28 128.75 198.62
  L 128.75 213.24
  Q 128.75 213.70 128.28 213.70
  L 112.55 213.61
  Q 113.46 206.35 112.67 199.50
  A 1.38 1.38 0.0 0 1 114.04 197.96
  L 128.22 197.91
  Z"
/>
<path fill="#201b21" d="
  M 480.60 197.90
  L 480.71 213.20
  Q 480.72 213.71 480.21 213.70
  L 464.55 213.61
  Q 465.46 206.35 464.67 199.50
  A 1.38 1.38 0.0 0 1 466.04 197.96
  L 480.60 197.90
  Z"
/>
<path fill="#201b21" d="
  M 497.20 197.93
  L 511.95 198.06
  Q 512.61 198.06 512.69 198.72
  L 513.21 202.89
  Q 512.27 206.22 513.25 207.36
  L 513.02 245.88
  L 497.81 245.75
  Q 497.26 245.75 497.26 245.20
  L 497.20 197.93
  Z"
/>
<path fill="#47b8fa" d="
  M 513.21 202.89
  Q 514.40 204.65 513.25 207.36
  Q 512.27 206.22 513.21 202.89
  Z"
/>
<path fill="#201b21" d="
  M 112.60 213.90
  L 112.71 229.20
  Q 112.72 229.70 112.22 229.70
  L 96.58 229.49
  Q 97.50 222.29 96.67 215.83
  A 1.66 1.65 86.2 0 1 98.30 213.96
  L 112.60 213.90
  Z"
/>
<path fill="#201b21" d="
  M 464.60 213.89
  L 464.71 229.27
  Q 464.71 229.75 464.23 229.75
  L 449.76 229.75
  Q 449.22 229.75 449.21 229.21
  L 449.01 213.87
  L 464.60 213.89
  Z"
/>
<path fill="#201b21" d="
  M 545.20 234.82
  L 545.11 239.15
  Q 544.47 242.30 545.19 245.95
  C 542.76 245.84 529.51 246.10 528.69 245.19
  Q 529.46 238.22 528.64 231.39
  A 1.24 1.24 0.0 0 1 529.87 230.00
  L 543.75 230.00
  A 1.26 1.25 10.2 0 1 544.93 231.69
  Q 544.29 233.39 545.20 234.82
  Z"
/>
<path fill="#47b8fa" d="
  M 545.20 234.82
  Q 547.14 237.40 545.11 239.15
  L 545.20 234.82
  Z"
/>
<path fill="#201b21" d="
  M 528.22 245.90
  L 528.42 246.05
  Q 528.75 246.30 528.75 246.71
  L 528.75 261.25
  Q 528.75 261.75 528.25 261.75
  L 513.76 261.75
  Q 513.22 261.75 513.21 261.21
  L 513.02 245.88
  L 528.22 245.90
  Z"
/>
<path fill="#201b21" d="
  M 96.60 246.01
  L 96.70 261.28
  Q 96.71 261.75 96.24 261.75
  L 66.04 261.75
  A 1.74 1.72 60.5 0 1 65.13 261.49
  L 64.68 261.21
  Q 65.46 254.28 64.66 247.59
  A 1.42 1.41 -3.4 0 1 66.07 246.01
  L 96.60 246.01
  Z"
/>
<path fill="#201b21" d="
  M 545.19 245.95
  L 559.96 246.06
  Q 560.62 246.07 560.70 246.72
  L 561.21 250.89
  Q 560.07 254.59 561.44 255.13
  Q 560.61 272.99 561.48 291.08
  A 2.58 2.58 0.0 0 1 558.95 293.79
  L 546.03 294.07
  C 545.64 294.46 545.25 293.54 545.25 293.18
  Q 545.30 269.62 545.19 245.95
  Z"
/>
<path fill="#47b8fa" d="
  M 561.21 250.89
  Q 562.26 252.34 561.44 255.13
  Q 560.07 254.59 561.21 250.89
  Z"
/>
<path fill="#201b21" d="
  M 64.22 261.91
  L 64.48 262.09
  Q 64.75 262.29 64.75 262.62
  L 64.75 293.71
  Q 64.75 293.90 64.56 293.98
  L 64.20 294.12
  L 49.30 294.05
  A 0.32 0.32 0.0 0 1 48.98 293.73
  L 48.95 263.19
  A 1.22 1.22 0.0 0 1 50.17 261.96
  L 64.22 261.91
  Z"
/>
<path fill="#201b21" d="
  M 80.20 310.12
  L 65.52 310.04
  A 0.75 0.75 0.0 0 1 64.77 309.23
  Q 65.38 301.99 64.59 294.75
  L 64.91 294.49
  Q 65.20 294.25 65.57 294.25
  L 80.25 294.25
  Q 80.75 294.25 80.75 294.75
  L 80.75 309.71
  Q 80.75 309.90 80.57 309.97
  L 80.20 310.12
  Z"
/>
<path fill="#201b21" d="
  M 545.09 295.05
  Q 544.53 297.71 545.42 300.82
  Q 544.09 304.48 545.34 306.72
  Q 545.61 309.99 543.02 309.99
  Q 537.05 310.01 531.12 310.00
  Q 530.64 309.99 530.23 310.27
  L 529.68 310.63
  Q 529.92 310.25 529.52 309.87
  Q 529.25 309.60 529.25 309.22
  L 529.25 294.80
  Q 529.25 294.35 529.70 294.33
  C 533.52 294.22 544.57 293.77 545.09 295.05
  Z"
/>
<path fill="#47b8fa" d="
  M 545.42 300.82
  Q 546.28 303.99 545.34 306.72
  Q 544.09 304.48 545.42 300.82
  Z"
/>
<path fill="#201b21" d="
  M 96.20 326.12
  L 81.52 326.04
  A 0.75 0.75 0.0 0 1 80.77 325.23
  Q 81.38 317.99 80.59 310.75
  Q 80.90 310.83 81.03 310.55
  Q 81.18 310.25 81.51 310.25
  L 96.22 310.25
  Q 96.75 310.25 96.75 310.78
  L 96.75 325.63
  Q 96.75 325.90 96.50 326.00
  L 96.20 326.12
  Z"
/>
<path fill="#201b21" d="
  M 529.68 310.63
  Q 527.86 313.11 529.16 317.08
  L 528.90 319.32
  L 529.11 325.91
  L 513.78 325.78
  Q 513.26 325.77 513.26 325.26
  L 513.23 310.90
  Q 513.23 310.40 513.73 310.37
  Q 521.84 309.88 529.68 310.63
  Z"
/>
<path fill="#47b8fa" d="
  M 129.35 311.12
  A 0.60 0.60 0.0 0 1 129.94 310.51
  L 143.53 310.47
  A 2.72 0.93 89.8 0 1 144.47 313.18
  L 144.51 322.74
  A 2.72 0.93 89.8 0 1 143.59 325.47
  L 130.00 325.51
  A 0.60 0.60 0.0 0 1 129.39 324.92
  L 129.35 311.12
  Z"
/>
<path fill="#47b8fa" d="
  M 321.68 325.57
  A 0.29 0.29 0.0 0 1 321.39 325.28
  L 321.31 311.21
  A 0.68 0.51 89.7 0 1 321.82 310.53
  L 335.80 310.45
  A 0.68 0.51 89.7 0 1 336.31 311.13
  L 336.39 325.20
  A 0.29 0.29 0.0 0 1 336.10 325.49
  L 321.68 325.57
  Z"
/>
<path fill="#47b8fa" d="
  M 529.16 317.08
  Q 529.71 317.19 530.00 317.66
  Q 530.29 318.11 529.88 318.46
  L 528.90 319.32
  L 529.16 317.08
  Z"
/>
<path fill="#201b21" d="
  M 529.11 325.91
  L 543.74 325.99
  A 1.24 1.24 0.0 0 1 544.92 327.60
  Q 544.41 329.22 545.21 330.82
  L 545.09 335.14
  Q 544.54 338.31 545.11 341.93
  L 529.81 341.76
  Q 529.25 341.75 529.25 341.20
  L 529.11 325.91
  Z"
/>
<path fill="#201b21" d="
  M 112.21 342.11
  L 97.52 342.04
  A 0.75 0.75 0.0 0 1 96.77 341.23
  Q 97.38 333.98 96.59 326.75
  Q 96.74 326.80 96.98 326.57
  Q 97.30 326.25 97.75 326.25
  L 112.25 326.25
  Q 112.75 326.25 112.75 326.75
  L 112.75 341.71
  A 0.28 0.28 0.0 0 1 112.57 341.97
  L 112.21 342.11
  Z"
/>
<path fill="#47b8fa" d="
  M 160.4281 340.8673
  A 0.55 0.55 0.0 0 1 159.8820 341.4211
  L 145.9223 341.5185
  A 0.55 0.55 0.0 0 1 145.3685 340.9724
  L 145.2719 327.1327
  A 0.55 0.55 0.0 0 1 145.8180 326.5789
  L 159.7777 326.4815
  A 0.55 0.55 0.0 0 1 160.3315 327.0276
  L 160.4281 340.8673
  Z"
/>
<path fill="#47b8fa" d="
  M 193.22 342.02
  L 193.38 327.56
  A 1.07 1.07 0.0 0 1 194.45 326.50
  L 207.81 326.50
  A 0.56 0.56 0.0 0 1 208.37 327.06
  L 208.45 342.10
  Q 208.45 342.50 208.85 342.50
  L 223.75 342.50
  Q 224.25 342.50 224.25 343.00
  L 224.25 358.00
  Q 224.25 358.49 224.75 358.49
  L 272.61 358.52
  Q 273.23 358.52 273.23 357.90
  L 273.37 343.56
  Q 273.38 342.49 274.45 342.49
  L 304.61 342.52
  Q 305.24 342.52 305.25 341.89
  L 305.36 327.07
  Q 305.36 326.50 305.93 326.50
  L 319.65 326.50
  A 0.72 0.71 -0.0 0 1 320.37 327.21
  L 320.45 342.10
  Q 320.45 342.50 320.85 342.50
  L 335.75 342.50
  Q 336.25 342.50 336.25 343.00
  L 336.25 358.00
  Q 336.25 358.50 336.75 358.50
  L 399.70 358.50
  A 0.65 0.65 0.0 0 1 400.35 359.14
  L 400.44 372.90
  Q 400.44 373.50 399.84 373.50
  L 384.62 373.50
  Q 384.24 373.50 384.24 373.88
  L 384.46 388.90
  Q 384.47 389.51 383.85 389.51
  L 338.28 389.48
  A 1.21 1.21 0.0 0 1 337.09 388.07
  Q 338.34 381.01 336.93 374.05
  Q 336.83 373.53 336.29 373.52
  L 322.27 373.45
  A 1.24 1.24 0.0 0 1 321.05 371.97
  Q 322.43 364.87 320.88 357.85
  Q 320.80 357.50 320.44 357.50
  L 304.50 357.50
  A 0.46 0.46 0.0 0 0 304.04 358.01
  Q 304.90 365.54 304.19 373.07
  Q 304.15 373.50 303.72 373.50
  L 272.68 373.50
  Q 271.98 373.50 272.06 374.20
  Q 272.90 381.63 272.19 389.07
  Q 272.15 389.51 271.71 389.51
  L 242.31 389.48
  Q 240.98 389.47 241.15 388.15
  Q 242.08 381.08 240.90 374.05
  Q 240.81 373.52 240.28 373.52
  L 210.01 373.47
  Q 209.44 373.47 209.34 372.91
  C 208.78 369.66 210.28 366.41 209.67 363.01
  Q 209.21 360.49 208.92 357.91
  Q 208.88 357.51 208.47 357.51
  L 162.45 357.49
  Q 161.01 357.49 161.17 356.06
  Q 161.82 349.96 161.11 343.87
  Q 160.96 342.54 162.30 342.53
  L 192.73 342.50
  Q 193.21 342.50 193.22 342.02
  Z"
/>
<path fill="#47b8fa" d="
  M 545.21 330.82
  Q 547.10 333.64 545.09 335.14
  L 545.21 330.82
  Z"
/>
<path fill="#201b21" d="
  M 545.11 341.93
  L 559.94 342.06
  Q 560.57 342.06 560.66 342.69
  L 561.20 346.66
  Q 560.17 351.12 561.17 355.52
  C 562.44 359.19 548.92 358.02 547.10 357.98
  A 1.74 1.70 31.7 0 0 546.29 358.16
  L 545.74 358.45
  C 544.64 356.89 545.20 344.75 545.11 341.93
  Z"
/>
<path fill="#201b21" d="
  M 128.20 374.12
  L 113.37 374.05
  A 0.53 0.53 0.0 0 1 112.84 373.51
  Q 113.29 357.38 112.72 342.75
  Q 112.91 342.84 113.03 342.43
  Q 113.08 342.25 113.27 342.25
  L 128.22 342.25
  Q 128.75 342.25 128.75 342.78
  L 128.75 373.71
  Q 128.75 373.90 128.57 373.97
  L 128.20 374.12
  Z"
/>
<path fill="#47b8fa" d="
  M 415.57 357.56
  Q 408.55 357.35 401.49 357.63
  Q 400.89 357.66 401.09 357.10
  C 402.31 353.74 401.26 346.85 401.25 343.03
  A 0.53 0.52 90.0 0 1 401.77 342.50
  L 415.82 342.50
  Q 416.38 342.50 416.38 343.07
  L 416.40 357.52
  Q 416.40 358.00 415.98 357.75
  L 415.73 357.60
  Q 415.66 357.56 415.57 357.56
  Z"
/>
<path fill="#47b8fa" d="
  M 561.20 346.66
  Q 562.72 351.00 561.17 355.52
  Q 560.17 351.12 561.20 346.66
  Z"
/>
<path fill="#201b21" d="
  M 545.35 374.31
  Q 545.24 377.32 545.40 386.92
  C 545.43 389.26 543.90 390.01 541.72 390.00
  Q 528.23 389.99 514.77 390.01
  Q 514.30 390.01 514.00 390.37
  L 513.71 390.72
  Q 513.85 390.12 513.54 389.86
  Q 513.27 389.62 513.26 389.25
  L 513.22 374.72
  Q 513.22 374.26 513.68 374.26
  L 545.35 374.31
  Z"
/>
<path fill="#201b21" d="
  M 176.20 390.05
  L 129.61 390.04
  Q 128.70 390.04 128.78 389.13
  Q 129.38 381.98 128.59 374.75
  L 128.91 374.49
  Q 129.20 374.25 129.57 374.25
  L 176.22 374.25
  Q 176.75 374.25 176.75 374.78
  L 176.75 389.52
  Q 176.75 389.85 176.47 390.02
  Q 176.06 390.26 176.20 390.05
  Z"
/>
<path fill="#201b21" d="
  M 304.21 406.15
  L 290.60 406.09
  Q 290.24 406.09 290.08 406.40
  Q 289.78 406.97 289.67 406.59
  Q 289.91 406.26 289.55 405.92
  A 0.98 0.94 -69.6 0 1 289.26 405.25
  L 289.22 390.76
  Q 289.22 390.25 289.73 390.25
  L 304.25 390.25
  Q 304.75 390.25 304.75 390.75
  L 304.75 405.72
  A 0.26 0.25 82.8 0 1 304.56 405.97
  Q 304.29 406.05 304.21 406.15
  Z"
/>
<path fill="#201b21" d="
  M 448.24 406.13
  L 434.00 406.11
  Q 433.89 406.25 433.60 406.02
  Q 433.25 405.74 433.25 405.29
  L 433.25 390.78
  Q 433.25 390.25 433.78 390.25
  L 448.24 390.25
  Q 448.73 390.25 448.73 390.74
  Q 448.78 398.28 448.74 405.74
  Q 448.74 406.52 448.24 406.13
  Z"
/>
<path fill="#201b21" d="
  M 513.69 390.41
  Q 511.92 393.03 513.25 396.44
  Q 512.26 400.33 513.28 402.91
  C 513.43 405.33 511.93 406.00 509.72 406.00
  Q 496.33 406.00 482.96 406.00
  Q 482.45 406.00 482.09 406.35
  L 481.63 406.80
  Q 481.95 406.27 481.55 405.90
  Q 481.27 405.64 481.26 405.25
  L 481.22 390.72
  Q 481.22 390.26 481.68 390.26
  L 513.69 390.41
  Z"
/>
<path fill="#201b21" d="
  M 192.20 406.12
  L 177.52 406.04
  A 0.75 0.75 0.0 0 1 176.77 405.23
  Q 177.38 397.99 176.59 390.75
  L 176.91 390.49
  Q 177.20 390.25 177.57 390.25
  L 192.25 390.25
  Q 192.75 390.25 192.75 390.75
  L 192.75 405.71
  Q 192.75 405.90 192.57 405.97
  L 192.20 406.12
  Z"
/>
<path fill="#47b8fa" d="
  M 513.25 396.44
  Q 514.55 399.69 513.28 402.91
  Q 512.26 400.33 513.25 396.44
  Z"
/>
<path fill="#201b21" d="
  M 289.67 406.59
  Q 287.82 409.26 289.23 412.82
  L 289.08 419.35
  L 288.47 421.45
  Q 288.32 421.98 287.77 421.99
  L 274.02 422.06
  Q 273.94 422.21 273.79 422.16
  A 0.81 0.80 -80.3 0 1 273.26 421.40
  L 273.23 406.85
  Q 273.23 406.31 273.78 406.32
  L 289.67 406.59
  Z"
/>
<path fill="#201b21" d="
  M 433.59 406.74
  Q 431.94 409.00 433.12 412.66
  L 433.08 419.37
  C 432.89 421.08 432.73 422.00 430.76 422.00
  Q 416.37 421.98 402.01 422.03
  Q 402.09 422.44 401.56 421.96
  Q 401.27 421.69 401.26 421.29
  L 401.22 406.76
  Q 401.22 406.25 401.73 406.25
  L 431.52 406.25
  A 2.02 1.95 -29.8 0 1 432.47 406.49
  Q 433.05 406.81 433.59 406.74
  Z"
/>
<path fill="#201b21" d="
  M 224.20 422.08
  L 193.61 422.04
  Q 192.70 422.04 192.78 421.14
  Q 193.38 413.98 192.59 406.75
  L 192.91 406.49
  Q 193.20 406.25 193.57 406.25
  L 224.25 406.25
  Q 224.75 406.25 224.75 406.75
  L 224.75 421.73
  Q 224.75 421.94 224.54 421.99
  L 224.20 422.08
  Z"
/>
<path fill="#201b21" d="
  M 336.20 422.08
  L 305.61 422.04
  Q 304.70 422.04 304.78 421.14
  Q 305.38 413.98 304.59 406.75
  Q 304.74 406.80 304.98 406.56
  Q 305.30 406.25 305.75 406.25
  L 336.25 406.25
  Q 336.75 406.25 336.75 406.75
  L 336.75 421.73
  Q 336.75 421.94 336.55 421.99
  L 336.20 422.08
  Z"
/>
<path fill="#201b21" d="
  M 481.63 406.80
  Q 479.87 408.71 481.34 412.87
  Q 480.08 416.58 481.33 418.93
  Q 481.36 422.00 479.01 422.00
  Q 464.12 422.00 449.33 422.00
  A 0.57 0.56 2.3 0 1 448.76 421.39
  Q 449.38 414.00 448.59 406.75
  L 448.93 406.46
  Q 449.18 406.26 449.51 406.26
  Q 463.97 406.25 478.44 406.24
  C 479.64 406.24 480.52 406.54 481.63 406.80
  Z"
/>
<path fill="#47b8fa" d="
  M 433.12 412.66
  Q 435.27 416.21 433.08 419.37
  L 433.12 412.66
  Z"
/>
<path fill="#47b8fa" d="
  M 289.23 412.82
  Q 291.19 416.52 289.08 419.35
  L 289.23 412.82
  Z"
/>
<path fill="#47b8fa" d="
  M 481.34 412.87
  Q 482.50 415.73 481.33 418.93
  Q 480.08 416.58 481.34 412.87
  Z"
/>
<path fill="#201b21" d="
  M 273.70 422.82
  C 271.99 423.81 272.90 427.26 273.31 428.80
  Q 272.33 432.49 273.13 435.40
  C 273.69 437.31 271.67 437.98 270.11 437.98
  Q 247.69 438.02 225.33 437.99
  A 0.56 0.56 0.0 0 1 224.77 437.38
  Q 225.38 430.00 224.59 422.75
  Q 224.75 422.81 225.00 422.54
  Q 225.29 422.25 225.70 422.25
  Q 248.06 422.26 270.42 422.24
  C 271.64 422.24 272.54 422.54 273.70 422.82
  Z"
/>
<path fill="#201b21" d="
  M 401.55 422.79
  Q 399.93 424.94 401.33 428.86
  Q 400.21 432.37 401.14 435.40
  Q 401.36 437.99 399.00 437.99
  Q 368.13 438.01 337.33 438.00
  A 0.57 0.56 -87.2 0 1 336.77 437.38
  Q 337.38 430.00 336.59 422.75
  Q 336.75 422.80 337.00 422.54
  Q 337.29 422.25 337.70 422.25
  Q 368.08 422.26 398.46 422.24
  C 399.63 422.24 400.49 422.52 401.55 422.79
  Z"
/>
<path fill="#47b8fa" d="
  M 273.31 428.80
  Q 274.47 432.21 273.13 435.40
  Q 272.33 432.49 273.31 428.80
  Z"
/>
<path fill="#47b8fa" d="
  M 401.33 428.86
  Q 402.61 432.09 401.14 435.40
  Q 400.21 432.37 401.33 428.86
  Z"
/>
</svg>
