<?xml version="1.0" encoding="UTF-8" standalone="no"?>
<!DOCTYPE svg PUBLIC "-//W3C//DTD SVG 1.1//EN" "http://www.w3.org/Graphics/SVG/1.1/DTD/svg11.dtd">
<svg xmlns="http://www.w3.org/2000/svg" version="1.1" viewBox="0.00 0.00 500.00 500.00">
<path fill="#535353" d="
  M 173.28 258.77
  L 173.23 245.63
  Q 173.23 244.50 174.36 244.50
  L 186.28 244.50
  A 0.77 0.77 0.0 0 0 187.05 243.72
  L 186.89 231.59
  A 0.83 0.83 0.0 0 1 187.72 230.75
  L 207.63 230.75
  A 0.88 0.87 90.0 0 0 208.50 229.87
  L 208.50 217.87
  Q 208.50 217.24 209.13 217.24
  L 228.16 217.27
  Q 228.78 217.27 228.78 216.65
  L 228.76 204.73
  A 1.21 1.20 -0.2 0 1 229.96 203.53
  L 241.88 203.48
  Q 242.50 203.48 242.50 202.86
  L 242.50 113.09
  A 0.48 0.47 -90.0 0 1 242.97 112.61
  L 255.03 112.60
  Q 256.16 112.60 256.18 111.47
  L 256.43 99.53
  Q 256.44 99.00 256.97 99.00
  L 365.74 99.00
  A 1.04 1.04 0.0 0 1 366.78 100.05
  L 366.68 111.92
  Q 366.68 112.41 367.17 112.42
  L 379.85 112.69
  Q 380.50 112.70 380.50 113.35
  L 380.50 174.00
  A 0.50 0.50 0.0 0 1 380.00 174.50
  L 311.87 174.50
  Q 311.24 174.50 311.24 175.13
  L 311.27 189.16
  Q 311.27 189.75 311.85 189.75
  L 351.98 189.75
  A 1.23 1.23 0.0 0 1 353.21 190.97
  L 353.27 201.52
  A 1.04 1.04 0.0 0 1 352.23 202.57
  L 297.92 202.47
  A 0.42 0.42 0.0 0 0 297.50 202.89
  L 297.50 229.87
  A 0.88 0.87 -90.0 0 0 298.37 230.75
  L 325.09 230.75
  A 0.66 0.66 0.0 0 1 325.75 231.41
  L 325.75 257.83
  A 0.59 0.58 -0.5 0 1 325.17 258.41
  L 313.13 258.52
  A 1.32 1.32 0.0 0 1 311.79 257.20
  L 311.73 244.16
  A 0.58 0.57 90.0 0 0 311.16 243.58
  L 298.13 243.49
  Q 297.50 243.49 297.50 244.12
  L 297.50 291.50
  A 1.00 1.00 0.0 0 1 296.50 292.50
  L 284.38 292.50
  Q 283.75 292.50 283.75 293.13
  L 283.75 313.00
  A 1.00 1.00 0.0 0 1 282.75 314.00
  L 270.91 314.00
  A 0.83 0.82 -1.0 0 0 270.09 314.84
  L 270.31 325.85
  Q 270.35 327.80 268.40 327.78
  L 256.06 327.63
  Q 255.50 327.63 255.50 328.19
  L 255.50 383.75
  A 0.50 0.50 0.0 0 0 256.00 384.25
  L 269.37 384.25
  A 0.88 0.88 0.0 0 1 270.25 385.13
  L 270.25 395.88
  A 1.38 1.37 -0.0 0 1 268.87 397.25
  L 244.02 397.25
  Q 242.53 397.25 242.53 395.77
  L 242.49 355.63
  Q 242.48 355.02 241.88 355.04
  L 230.40 355.31
  A 1.36 1.36 0.0 0 1 229.00 353.96
  L 228.93 342.21
  Q 228.93 341.50 228.22 341.50
  L 215.25 341.50
  A 0.75 0.75 0.0 0 0 214.50 342.25
  L 214.50 354.06
  Q 214.50 355.36 213.19 355.33
  L 201.32 355.02
  A 0.67 0.67 0.0 0 0 200.63 355.68
  L 200.49 367.87
  A 0.67 0.67 0.0 0 1 199.82 368.53
  L 186.81 368.58
  Q 186.20 368.58 186.20 369.19
  L 186.27 383.83
  A 0.56 0.55 0.0 0 0 186.83 384.38
  L 199.62 384.25
  A 1.12 1.12 0.0 0 1 200.75 385.37
  L 200.75 396.50
  A 0.75 0.75 0.0 0 1 200.00 397.25
  L 174.76 397.25
  A 1.49 1.49 0.0 0 1 173.27 395.77
  Q 173.24 370.23 173.21 345.00
  C 173.21 338.53 170.46 336.51 166.62 331.96
  C 161.58 326.00 153.67 327.44 146.84 327.51
  A 1.13 1.13 0.0 0 1 145.69 326.35
  L 145.93 315.39
  A 1.37 1.37 0.0 0 0 144.57 314.00
  L 132.73 314.00
  Q 131.21 314.00 131.23 312.48
  L 131.37 300.10
  Q 131.38 299.50 130.78 299.50
  L 118.66 299.50
  Q 117.58 299.50 117.57 298.42
  L 117.47 286.60
  A 1.12 1.11 -0.3 0 0 116.35 285.50
  L 105.00 285.50
  Q 103.75 285.50 103.75 284.25
  L 103.75 204.37
  A 0.88 0.87 -0.0 0 1 104.63 203.50
  L 115.76 203.50
  Q 116.77 203.50 116.77 204.51
  L 116.71 230.20
  Q 116.71 230.75 117.26 230.75
  L 129.62 230.75
  A 0.88 0.88 0.0 0 1 130.50 231.63
  L 130.50 244.00
  Q 130.50 244.50 131.00 244.50
  L 144.37 244.50
  A 0.88 0.88 0.0 0 1 145.25 245.38
  L 145.25 258.25
  A 1.00 1.00 0.0 0 0 146.25 259.25
  L 172.80 259.25
  Q 173.28 259.25 173.28 258.77
  Z
  M 284.50 119.38
  A 0.62 0.62 0.0 0 0 283.88 118.76
  L 270.86 118.76
  A 0.62 0.62 0.0 0 0 270.24 119.38
  L 270.24 133.64
  A 0.62 0.62 0.0 0 0 270.86 134.26
  L 283.88 134.26
  A 0.62 0.62 0.0 0 0 284.50 133.64
  L 284.50 119.38
  Z"
/>
</svg>
