<?xml version="1.0" encoding="UTF-8" standalone="no"?>
<!DOCTYPE svg PUBLIC "-//W3C//DTD SVG 1.1//EN" "http://www.w3.org/Graphics/SVG/1.1/DTD/svg11.dtd">
<svg xmlns="http://www.w3.org/2000/svg" version="1.1" viewBox="0.00 0.00 500.00 500.00">
<path fill="#397681" d="
  M 298.28 137.58
  Q 299.01 140.47 301.52 143.11
  A 0.54 0.53 57.4 0 1 301.33 143.98
  L 287.19 149.52
  L 280.89 150.75
  Q 283.41 141.65 290.40 135.37
  C 292.79 133.21 296.59 135.88 298.28 137.58
  Z"
/>
<path fill="#1f596e" d="
  M 298.28 137.58
  Q 304.27 143.77 308.20 151.58
  Q 298.64 149.55 287.19 149.52
  L 301.33 143.98
  A 0.54 0.53 57.4 0 0 301.52 143.11
  Q 299.01 140.47 298.28 137.58
  Z"
/>
<path fill="#1f596e" d="
  M 339.69 157.96
  Q 330.19 156.34 320.27 153.59
  Q 322.43 153.25 324.69 153.71
  C 329.36 154.64 332.46 154.13 334.51 149.46
  A 1.25 1.21 -44.1 0 0 334.54 148.52
  Q 333.85 146.64 332.46 145.09
  A 1.04 1.02 -15.7 0 0 331.86 144.76
  Q 331.42 144.69 331.70 144.20
  Q 332.02 143.65 331.40 143.54
  L 330.43 143.35
  C 335.78 141.98 338.51 155.18 339.69 157.96
  Z"
/>
<path fill="#397681" d="
  M 330.43 143.35
  L 331.40 143.54
  Q 332.02 143.65 331.70 144.20
  Q 331.42 144.69 331.86 144.76
  A 1.04 1.02 -15.7 0 1 332.46 145.09
  Q 333.85 146.64 334.54 148.52
  A 1.25 1.21 -44.1 0 1 334.51 149.46
  C 332.46 154.13 329.36 154.64 324.69 153.71
  Q 322.43 153.25 320.27 153.59
  Q 318.57 153.74 316.39 152.49
  Q 322.56 145.79 330.43 143.35
  Z"
/>
<path fill="#8fd9aa" d="
  M 287.19 149.52
  Q 298.64 149.55 308.20 151.58
  L 316.39 152.49
  Q 318.57 153.74 320.27 153.59
  Q 330.19 156.34 339.69 157.96
  Q 341.05 158.25 340.61 158.62
  Q 344.06 160.76 347.72 162.35
  C 357.08 166.43 364.27 171.35 370.81 179.22
  Q 380.35 191.42 375.31 205.26
  Q 369.89 214.97 359.43 215.91
  Q 343.38 217.34 322.95 216.06
  C 316.33 215.64 307.13 214.19 302.13 209.77
  A 1.16 1.14 -68.8 0 1 301.75 208.89
  L 301.78 207.54
  Q 301.80 207.03 301.29 206.98
  Q 300.81 206.94 300.16 207.20
  Q 297.45 201.68 290.73 201.58
  C 281.45 201.44 275.17 210.02 273.15 218.25
  C 271.53 224.88 272.22 235.44 271.23 242.51
  C 269.30 256.38 262.28 274.61 250.25 283.31
  Q 246.07 278.38 240.21 274.36
  Q 240.17 274.33 240.13 274.35
  Q 239.98 274.41 239.95 274.58
  Q 239.92 274.75 240.05 274.88
  Q 246.42 280.96 249.55 289.13
  Q 249.74 289.63 249.56 290.13
  C 248.02 294.39 246.90 298.88 243.69 302.20
  Q 240.45 305.55 238.82 306.32
  C 230.92 310.05 220.70 308.95 219.78 298.21
  Q 219.68 297.01 219.34 298.16
  C 218.56 300.82 219.45 305.89 219.78 308.88
  C 211.07 300.55 196.69 300.40 185.96 303.67
  C 181.99 304.89 177.64 307.73 173.80 309.27
  C 155.87 316.43 138.33 312.79 123.51 300.74
  Q 114.14 293.13 111.11 281.51
  Q 110.97 280.99 110.50 281.24
  L 110.04 281.49
  C 110.23 278.50 110.78 269.98 113.10 265.77
  Q 113.52 265.01 113.66 265.87
  L 114.70 272.18
  Q 116.27 280.10 123.43 285.20
  Q 126.33 289.77 131.89 290.80
  Q 133.34 292.90 134.99 291.89
  Q 139.78 293.33 144.98 292.48
  Q 147.63 292.92 149.07 290.97
  Q 156.04 288.07 160.54 282.19
  Q 163.66 281.13 165.20 278.15
  L 178.90 262.04
  L 188.12 254.44
  C 193.29 251.22 198.32 247.57 203.65 245.08
  Q 207.94 243.08 212.48 241.20
  L 219.58 239.94
  L 239.95 239.86
  L 251.16 239.93
  C 256.74 241.52 257.39 229.12 257.01 225.37
  Q 256.99 221.60 255.60 218.17
  Q 251.73 203.87 252.21 189.76
  L 252.40 186.92
  L 254.48 178.37
  C 258.75 167.87 262.97 159.94 273.20 154.30
  L 280.89 150.75
  L 287.19 149.52
  Z
  M 317.5754 183.6440
  A 15.39 14.92 -1.4 0 0 301.8255 169.1045
  A 15.39 14.92 -1.4 0 0 286.8046 184.3960
  A 15.39 14.92 -1.4 0 0 302.5545 198.9355
  A 15.39 14.92 -1.4 0 0 317.5754 183.6440
  Z
  M 363.9651 193.6049
  A 6.03 3.50 7.0 0 0 358.4065 189.3961
  A 6.03 3.50 7.0 0 0 351.9949 192.1351
  A 6.03 3.50 7.0 0 0 357.5535 196.3439
  A 6.03 3.50 7.0 0 0 363.9651 193.6049
  Z"
/>
<path fill="#397681" d="
  M 273.20 154.30
  C 262.97 159.94 258.75 167.87 254.48 178.37
  Q 249.56 168.11 249.25 156.72
  C 249.09 150.83 269.27 153.39 273.20 154.30
  Z"
/>
<path fill="#6ab390" d="
  M 340.61 158.62
  Q 359.90 162.91 372.56 177.14
  L 370.81 179.22
  C 364.27 171.35 357.08 166.43 347.72 162.35
  Q 344.06 160.76 340.61 158.62
  Z"
/>
<path fill="#1f596e" d="
  M 317.5754 183.6440
  A 15.39 14.92 -1.4 0 1 302.5545 198.9355
  A 15.39 14.92 -1.4 0 1 286.8046 184.3960
  A 15.39 14.92 -1.4 0 1 301.8255 169.1045
  A 15.39 14.92 -1.4 0 1 317.5754 183.6440
  Z
  M 307.45 179.47
  A 6.24 6.24 0.0 0 0 301.21 173.23
  A 6.24 6.24 0.0 0 0 294.97 179.47
  A 6.24 6.24 0.0 0 0 301.21 185.71
  A 6.24 6.24 0.0 0 0 307.45 179.47
  Z"
/>
<path fill="#ffffff" d="
  M 307.45 179.47
  A 6.24 6.24 0.0 0 1 301.21 185.71
  A 6.24 6.24 0.0 0 1 294.97 179.47
  A 6.24 6.24 0.0 0 1 301.21 173.23
  A 6.24 6.24 0.0 0 1 307.45 179.47
  Z"
/>
<path fill="#1f596e" d="
  M 372.56 177.14
  C 379.73 184.62 382.96 196.79 378.35 206.50
  Q 378.56 204.62 375.31 205.26
  Q 380.35 191.42 370.81 179.22
  L 372.56 177.14
  Z"
/>
<path fill="#397681" d="
  M 252.40 186.92
  L 252.21 189.76
  L 251.84 189.84
  Q 251.33 189.95 251.26 190.46
  L 248.35 210.60
  Q 248.26 211.21 247.77 210.83
  L 242.11 206.47
  Q 241.80 206.23 241.44 206.40
  L 241.10 206.56
  Q 241.06 206.58 241.09 206.63
  Q 241.20 206.77 241.21 206.95
  Q 241.23 207.25 241.01 207.04
  Q 240.61 206.67 240.15 206.58
  L 235.67 200.41
  A 1.44 1.43 46.2 0 1 235.70 198.68
  Q 242.01 190.58 252.40 186.92
  Z"
/>
<path fill="#1f596e" d="
  M 363.9651 193.6049
  A 6.03 3.50 7.0 0 1 357.5535 196.3439
  A 6.03 3.50 7.0 0 1 351.9949 192.1351
  A 6.03 3.50 7.0 0 1 358.4065 189.3961
  A 6.03 3.50 7.0 0 1 363.9651 193.6049
  Z"
/>
<path fill="#1f596e" d="
  M 252.21 189.76
  Q 251.73 203.87 255.60 218.17
  Q 246.70 213.76 240.15 206.58
  Q 240.61 206.67 241.01 207.04
  Q 241.23 207.25 241.21 206.95
  Q 241.20 206.77 241.09 206.63
  Q 241.06 206.58 241.10 206.56
  L 241.44 206.40
  Q 241.80 206.23 242.11 206.47
  L 247.77 210.83
  Q 248.26 211.21 248.35 210.60
  L 251.26 190.46
  Q 251.33 189.95 251.84 189.84
  L 252.21 189.76
  Z"
/>
<path fill="#ffecc1" d="
  M 300.16 207.20
  Q 300.28 211.99 297.33 215.24
  Q 296.63 216.01 297.58 215.60
  Q 299.33 214.83 300.50 213.35
  A 0.59 0.58 -51.5 0 1 301.33 213.25
  C 311.17 221.13 329.38 220.39 341.06 219.96
  Q 335.21 228.13 327.21 231.22
  Q 322.16 233.17 319.74 234.71
  Q 312.27 234.98 304.77 235.20
  C 302.09 235.28 300.60 236.36 298.19 237.55
  Q 296.82 236.86 293.18 236.58
  Q 286.97 236.09 280.71 230.61
  Q 280.24 230.20 280.47 230.78
  Q 282.02 234.62 283.55 237.22
  Q 292.97 253.19 305.45 270.94
  L 306.02 281.29
  Q 306.24 285.05 305.57 287.00
  C 299.00 301.66 286.75 313.81 272.52 320.56
  C 268.04 322.68 262.05 324.30 256.84 326.06
  A 0.52 0.52 0.0 0 1 256.17 325.42
  Q 258.69 316.40 256.95 307.02
  Q 256.93 299.70 254.52 292.72
  Q 253.18 288.06 250.25 283.31
  C 262.28 274.61 269.30 256.38 271.23 242.51
  C 272.22 235.44 271.53 224.88 273.15 218.25
  C 275.17 210.02 281.45 201.44 290.73 201.58
  Q 297.45 201.68 300.16 207.20
  Z"
/>
<path fill="#0b3658" d="
  M 378.35 206.50
  Q 375.50 213.36 370.44 215.94
  Q 366.02 218.19 365.02 219.09
  Q 363.64 218.69 361.73 219.62
  L 341.06 219.96
  C 329.38 220.39 311.17 221.13 301.33 213.25
  A 0.59 0.58 -51.5 0 0 300.50 213.35
  Q 299.33 214.83 297.58 215.60
  Q 296.63 216.01 297.33 215.24
  Q 300.28 211.99 300.16 207.20
  Q 300.81 206.94 301.29 206.98
  Q 301.80 207.03 301.78 207.54
  L 301.75 208.89
  A 1.16 1.14 -68.8 0 0 302.13 209.77
  C 307.13 214.19 316.33 215.64 322.95 216.06
  Q 343.38 217.34 359.43 215.91
  Q 369.89 214.97 375.31 205.26
  Q 378.56 204.62 378.35 206.50
  Z"
/>
<path fill="#a5554a" d="
  M 365.02 219.09
  Q 355.90 231.79 341.50 235.87
  Q 336.76 237.21 328.38 237.29
  Q 317.31 237.39 306.26 237.55
  C 304.83 237.57 302.97 237.27 301.36 237.95
  A 1.63 1.62 70.6 0 0 300.43 239.90
  C 304.25 253.04 308.52 264.64 309.13 279.33
  Q 307.28 281.59 306.02 281.29
  L 305.45 270.94
  Q 302.70 253.70 298.19 237.55
  C 300.60 236.36 302.09 235.28 304.77 235.20
  Q 312.27 234.98 319.74 234.71
  Q 345.15 237.64 361.73 219.62
  Q 363.64 218.69 365.02 219.09
  Z"
/>
<path fill="#f1c79a" d="
  M 361.73 219.62
  Q 345.15 237.64 319.74 234.71
  Q 322.16 233.17 327.21 231.22
  Q 335.21 228.13 341.06 219.96
  L 361.73 219.62
  Z"
/>
<path fill="#1f596e" d="
  M 257.01 225.37
  C 257.39 229.12 256.74 241.52 251.16 239.93
  Q 249.57 236.43 247.51 233.21
  C 245.24 229.67 254.61 226.19 257.01 225.37
  Z"
/>
<path fill="#397681" d="
  M 239.95 239.86
  L 219.58 239.94
  C 220.52 237.10 226.44 223.36 230.83 226.88
  Q 237.11 231.90 239.95 239.86
  Z"
/>
<path fill="#f1c79a" d="
  M 298.19 237.55
  Q 302.70 253.70 305.45 270.94
  Q 292.97 253.19 283.55 237.22
  Q 282.02 234.62 280.47 230.78
  Q 280.24 230.20 280.71 230.61
  Q 286.97 236.09 293.18 236.58
  Q 296.82 236.86 298.19 237.55
  Z"
/>
<path fill="#397681" d="
  M 212.48 241.20
  Q 207.94 243.08 203.65 245.08
  C 198.32 247.57 193.29 251.22 188.12 254.44
  Q 187.26 245.43 189.37 237.16
  Q 190.48 232.82 195.05 234.02
  Q 203.89 236.34 212.48 241.20
  Z"
/>
<path fill="#397681" d="
  M 178.90 262.04
  L 165.20 278.15
  Q 161.35 270.51 161.00 265.98
  C 160.54 260.07 175.45 261.42 178.90 262.04
  Z"
/>
<path fill="#1f596e" d="
  M 114.70 272.18
  C 117.23 271.67 116.98 274.48 117.24 276.11
  Q 117.32 276.63 117.77 276.91
  Q 118.79 277.56 120.14 277.16
  A 0.74 0.73 76.5 0 1 121.07 277.73
  L 121.85 282.09
  A 1.21 1.20 62.7 0 0 123.88 282.74
  Q 125.66 281.00 128.05 281.42
  A 1.20 1.16 77.2 0 1 128.85 281.94
  Q 131.01 285.19 131.51 290.03
  L 123.43 285.20
  Q 116.27 280.10 114.70 272.18
  Z"
/>
<path fill="#6ab390" d="
  M 250.25 283.31
  Q 253.18 288.06 254.52 292.72
  Q 253.12 293.05 253.21 294.17
  Q 253.24 294.64 252.91 294.97
  L 252.36 295.52
  Q 251.94 295.94 252.01 296.52
  L 253.00 304.36
  C 253.61 312.26 249.90 319.21 242.10 321.44
  C 236.57 323.02 230.26 321.24 226.37 316.51
  Q 225.38 315.31 224.21 314.39
  L 220.29 309.96
  Q 219.98 309.68 219.78 308.88
  C 219.45 305.89 218.56 300.82 219.34 298.16
  Q 219.68 297.01 219.78 298.21
  C 220.70 308.95 230.92 310.05 238.82 306.32
  Q 240.45 305.55 243.69 302.20
  C 246.90 298.88 248.02 294.39 249.56 290.13
  Q 249.74 289.63 249.55 289.13
  Q 246.42 280.96 240.05 274.88
  Q 239.92 274.75 239.95 274.58
  Q 239.98 274.41 240.13 274.35
  Q 240.17 274.33 240.21 274.36
  Q 246.07 278.38 250.25 283.31
  Z"
/>
<path fill="#6f3144" d="
  M 309.13 279.33
  Q 309.64 280.13 309.67 280.51
  C 308.80 280.50 309.54 287.87 309.47 288.80
  L 307.82 298.49
  Q 305.96 300.61 303.89 299.96
  Q 305.65 294.06 305.57 287.00
  Q 306.24 285.05 306.02 281.29
  Q 307.28 281.59 309.13 279.33
  Z"
/>
<path fill="#1f596e" d="
  M 309.67 280.51
  Q 314.38 289.95 314.26 300.49
  Q 312.35 298.17 310.80 299.71
  Q 310.88 294.34 309.47 288.80
  C 309.54 287.87 308.80 280.50 309.67 280.51
  Z"
/>
<path fill="#febb72" d="
  M 219.78 308.88
  Q 219.98 309.68 220.29 309.96
  C 216.74 329.77 199.28 344.75 178.80 343.42
  A 0.80 0.80 0.0 0 0 178.05 344.62
  L 183.95 354.79
  Q 190.07 356.62 193.98 360.51
  L 196.04 364.17
  Q 196.34 364.70 195.73 364.74
  Q 183.47 365.44 171.22 363.94
  Q 161.94 361.14 158.42 351.96
  C 155.46 341.26 160.51 329.73 167.74 321.51
  Q 168.56 320.58 167.54 321.29
  L 163.91 323.80
  Q 163.52 324.08 163.04 324.03
  Q 136.23 321.44 118.43 301.65
  C 117.11 300.19 116.69 297.93 114.29 297.01
  Q 113.81 296.83 113.64 296.35
  L 110.46 287.86
  Q 109.68 285.49 110.04 281.49
  L 110.50 281.24
  Q 110.97 280.99 111.11 281.51
  Q 114.14 293.13 123.51 300.74
  C 138.33 312.79 155.87 316.43 173.80 309.27
  C 177.64 307.73 181.99 304.89 185.96 303.67
  C 196.69 300.40 211.07 300.55 219.78 308.88
  Z"
/>
<path fill="#397681" d="
  M 160.54 282.19
  Q 156.04 288.07 149.07 290.97
  Q 149.17 287.71 148.33 284.50
  C 146.95 279.20 157.40 281.43 160.54 282.19
  Z"
/>
<path fill="#6ab390" d="
  M 123.43 285.20
  L 131.51 290.03
  Q 131.23 288.76 131.89 290.80
  Q 126.33 289.77 123.43 285.20
  Z"
/>
<path fill="#397681" d="
  M 144.98 292.48
  Q 139.78 293.33 134.99 291.89
  Q 135.75 288.88 137.41 286.49
  A 1.89 1.89 0.0 0 1 140.10 286.07
  Q 143.15 288.39 144.98 292.48
  Z"
/>
<path fill="#f1c79a" d="
  M 305.57 287.00
  Q 305.65 294.06 303.89 299.96
  Q 301.98 309.05 296.21 316.52
  Q 280.61 336.46 256.00 343.05
  Q 236.24 347.31 216.17 345.02
  Q 215.72 344.97 216.03 344.64
  Q 224.66 335.71 225.45 323.56
  Q 225.04 326.46 226.71 326.50
  Q 230.26 326.57 236.37 325.37
  Q 253.83 325.42 256.57 309.45
  L 256.95 307.02
  Q 258.69 316.40 256.17 325.42
  A 0.52 0.52 0.0 0 0 256.84 326.06
  C 262.05 324.30 268.04 322.68 272.52 320.56
  C 286.75 313.81 299.00 301.66 305.57 287.00
  Z"
/>
<path fill="#fb9151" d="
  M 110.46 287.86
  L 113.64 296.35
  Q 113.81 296.83 114.29 297.01
  C 116.69 297.93 117.11 300.19 118.43 301.65
  Q 136.23 321.44 163.04 324.03
  Q 163.52 324.08 163.91 323.80
  L 167.54 321.29
  Q 168.56 320.58 167.74 321.51
  C 160.51 329.73 155.46 341.26 158.42 351.96
  L 155.74 352.82
  Q 154.17 346.93 155.01 340.96
  C 155.25 339.22 156.21 337.32 156.29 335.20
  Q 156.68 335.13 156.79 335.02
  A 1.04 1.03 -60.2 0 0 156.33 333.31
  Q 131.03 325.93 115.58 303.12
  Q 111.09 297.20 110.46 287.86
  Z"
/>
<path fill="#6ab390" d="
  M 309.47 288.80
  Q 310.88 294.34 310.80 299.71
  Q 310.56 307.79 303.20 311.70
  A 0.16 0.16 0.0 0 1 302.99 311.48
  Q 306.35 305.68 307.82 298.49
  L 309.47 288.80
  Z"
/>
<path fill="#1f596e" d="
  M 254.52 292.72
  Q 256.93 299.70 256.95 307.02
  L 256.57 309.45
  Q 256.17 303.17 253.00 304.36
  L 252.01 296.52
  Q 251.94 295.94 252.36 295.52
  L 252.91 294.97
  Q 253.24 294.64 253.21 294.17
  Q 253.12 293.05 254.52 292.72
  Z"
/>
<path fill="#0b3658" d="
  M 307.82 298.49
  Q 306.35 305.68 302.99 311.48
  A 0.16 0.16 0.0 0 0 303.20 311.70
  Q 310.56 307.79 310.80 299.71
  Q 312.35 298.17 314.26 300.49
  C 314.57 308.36 308.50 314.79 300.98 316.12
  Q 300.49 316.21 300.20 316.62
  L 298.97 318.38
  Q 297.55 317.97 296.21 316.52
  Q 301.98 309.05 303.89 299.96
  Q 305.96 300.61 307.82 298.49
  Z"
/>
<path fill="#a5554a" d="
  M 156.29 335.20
  Q 141.11 330.36 128.74 320.26
  Q 120.17 313.25 115.58 303.12
  Q 131.03 325.93 156.33 333.31
  A 1.04 1.03 -60.2 0 1 156.79 335.02
  Q 156.68 335.13 156.29 335.20
  Z"
/>
<path fill="#0b3658" d="
  M 256.57 309.45
  Q 253.83 325.42 236.37 325.37
  Q 228.55 322.90 225.33 315.99
  L 224.21 314.39
  Q 225.38 315.31 226.37 316.51
  C 230.26 321.24 236.57 323.02 242.10 321.44
  C 249.90 319.21 253.61 312.26 253.00 304.36
  Q 256.17 303.17 256.57 309.45
  Z"
/>
<path fill="#fb9151" d="
  M 220.29 309.96
  L 224.21 314.39
  L 225.33 315.99
  L 224.48 316.76
  C 224.65 336.27 210.82 346.80 194.29 353.31
  C 190.65 354.75 187.47 351.39 183.95 354.79
  L 178.05 344.62
  A 0.80 0.80 0.0 0 1 178.80 343.42
  C 199.28 344.75 216.74 329.77 220.29 309.96
  Z"
/>
<path fill="#ffecc1" d="
  M 225.33 315.99
  Q 228.55 322.90 236.37 325.37
  Q 230.26 326.57 226.71 326.50
  Q 225.04 326.46 225.45 323.56
  Q 225.75 319.75 224.48 316.76
  L 225.33 315.99
  Z"
/>
<path fill="#6f3144" d="
  M 296.21 316.52
  Q 297.55 317.97 298.97 318.38
  Q 299.10 318.74 298.89 318.88
  L 297.12 321.21
  Q 283.62 336.90 264.92 343.77
  Q 264.57 343.89 264.68 344.24
  Q 265.03 345.38 265.07 347.21
  C 265.24 353.84 269.42 360.30 276.47 360.75
  Q 286.83 361.41 296.91 360.64
  L 300.65 360.54
  Q 304.10 361.38 304.82 359.38
  L 308.91 358.11
  C 309.22 361.48 306.67 363.92 303.20 363.95
  Q 289.01 364.07 274.74 363.97
  C 266.72 363.92 261.80 352.61 261.83 345.90
  A 1.20 1.20 0.0 0 0 260.26 344.75
  L 256.47 345.98
  Q 256.60 345.55 257.04 345.11
  Q 257.35 344.80 257.00 344.54
  Q 256.21 343.96 256.00 343.05
  Q 280.61 336.46 296.21 316.52
  Z"
/>
<path fill="#a5554a" d="
  M 224.48 316.76
  Q 225.75 319.75 225.45 323.56
  Q 224.66 335.71 216.03 344.64
  Q 215.72 344.97 216.17 345.02
  Q 236.24 347.31 256.00 343.05
  Q 256.21 343.96 257.00 344.54
  Q 257.35 344.80 257.04 345.11
  Q 256.60 345.55 256.47 345.98
  L 246.54 347.93
  A 0.62 0.62 0.0 0 0 246.46 349.13
  Q 252.43 351.10 252.03 356.85
  Q 249.98 358.26 248.66 357.15
  Q 248.57 351.12 242.65 350.27
  A 0.42 0.42 0.0 0 0 242.29 350.99
  Q 245.25 353.92 246.46 357.99
  L 241.94 358.36
  Q 242.32 354.03 238.34 351.88
  C 232.82 348.92 222.23 349.13 215.95 348.82
  Q 213.73 346.95 212.59 347.53
  L 201.98 353.60
  Q 200.87 353.56 200.27 354.56
  Q 200.01 354.99 200.20 355.45
  Q 200.59 356.40 200.51 357.45
  Q 194.87 355.03 197.25 358.16
  L 193.98 360.51
  Q 190.07 356.62 183.95 354.79
  C 187.47 351.39 190.65 354.75 194.29 353.31
  C 210.82 346.80 224.65 336.27 224.48 316.76
  Z"
/>
<path fill="#a5554a" d="
  M 298.89 318.88
  C 302.93 327.73 301.68 337.98 298.67 346.87
  A 0.86 0.85 -73.0 0 0 299.25 347.97
  Q 306.69 350.03 308.91 358.11
  L 304.82 359.38
  C 304.50 356.40 301.55 351.13 297.85 350.98
  A 0.88 0.88 0.0 0 0 297.19 352.49
  Q 300.37 355.65 300.65 360.54
  L 296.91 360.64
  Q 294.26 351.66 284.71 351.06
  Q 284.02 351.02 284.52 350.53
  C 286.85 348.26 289.93 348.66 293.00 349.51
  Q 293.51 349.65 293.74 349.17
  Q 300.09 336.08 297.12 321.21
  L 298.89 318.88
  Z"
/>
<path fill="#fb9151" d="
  M 297.12 321.21
  Q 300.09 336.08 293.74 349.17
  Q 293.51 349.65 293.00 349.51
  C 289.93 348.66 286.85 348.26 284.52 350.53
  Q 284.02 351.02 284.71 351.06
  Q 294.26 351.66 296.91 360.64
  Q 286.83 361.41 276.47 360.75
  C 269.42 360.30 265.24 353.84 265.07 347.21
  Q 265.03 345.38 264.68 344.24
  Q 264.57 343.89 264.92 343.77
  Q 283.62 336.90 297.12 321.21
  Z"
/>
<path fill="#6f3144" d="
  M 215.95 348.82
  C 216.96 356.81 221.11 358.24 228.75 358.23
  Q 235.04 358.22 241.94 358.36
  L 246.46 357.99
  Q 247.42 358.16 248.66 357.15
  Q 249.98 358.26 252.03 356.85
  Q 251.10 360.70 247.93 360.91
  Q 243.45 361.22 227.02 361.41
  Q 213.58 361.57 212.59 347.53
  Q 213.73 346.95 215.95 348.82
  Z"
/>
<path fill="#fb9151" d="
  M 241.94 358.36
  Q 235.04 358.22 228.75 358.23
  C 221.11 358.24 216.96 356.81 215.95 348.82
  C 222.23 349.13 232.82 348.92 238.34 351.88
  Q 242.32 354.03 241.94 358.36
  Z"
/>
<path fill="#fb9151" d="
  M 248.66 357.15
  Q 247.42 358.16 246.46 357.99
  Q 245.25 353.92 242.29 350.99
  A 0.42 0.42 0.0 0 1 242.65 350.27
  Q 248.57 351.12 248.66 357.15
  Z"
/>
<path fill="#fb9151" d="
  M 304.82 359.38
  Q 304.10 361.38 300.65 360.54
  Q 300.37 355.65 297.19 352.49
  A 0.88 0.88 0.0 0 1 297.85 350.98
  C 301.55 351.13 304.50 356.40 304.82 359.38
  Z"
/>
<path fill="#a5554a" d="
  M 158.42 351.96
  Q 161.94 361.14 171.22 363.94
  Q 170.40 364.01 169.60 366.29
  Q 158.79 363.05 155.74 352.82
  L 158.42 351.96
  Z"
/>
<path fill="#6f3144" d="
  M 201.98 353.60
  C 205.36 357.55 212.19 362.51 205.44 367.41
  Q 205.01 367.72 204.48 367.72
  Q 191.91 367.79 179.52 368.07
  Q 175.12 368.17 169.60 366.29
  Q 170.40 364.01 171.22 363.94
  Q 183.47 365.44 195.73 364.74
  Q 196.34 364.70 196.04 364.17
  L 193.98 360.51
  L 197.25 358.16
  Q 199.30 360.97 200.21 364.34
  Q 200.38 364.98 201.04 364.86
  L 203.79 364.37
  A 0.61 0.61 0.0 0 0 204.28 363.65
  Q 203.55 359.84 200.51 357.45
  Q 200.59 356.40 200.20 355.45
  Q 200.01 354.99 200.27 354.56
  Q 200.87 353.56 201.98 353.60
  Z"
/>
<path fill="#fb9151" d="
  M 200.51 357.45
  Q 203.55 359.84 204.28 363.65
  A 0.61 0.61 0.0 0 1 203.79 364.37
  L 201.04 364.86
  Q 200.38 364.98 200.21 364.34
  Q 199.30 360.97 197.25 358.16
  Q 194.87 355.03 200.51 357.45
  Z"
/>
</svg>
