<?xml version="1.0" encoding="UTF-8" standalone="no"?>
<!DOCTYPE svg PUBLIC "-//W3C//DTD SVG 1.1//EN" "http://www.w3.org/Graphics/SVG/1.1/DTD/svg11.dtd">
<svg xmlns="http://www.w3.org/2000/svg" version="1.1" viewBox="0.00 0.00 500.00 500.00">
<path fill="#000000" d="
  M 304.72 142.73
  L 310.37 144.39
  A 0.33 0.33 0.0 0 1 310.37 145.03
  L 304.72 146.69
  A 0.33 0.33 0.0 0 0 304.50 146.91
  L 302.84 152.56
  A 0.33 0.33 0.0 0 1 302.20 152.56
  L 300.54 146.91
  A 0.33 0.33 0.0 0 0 300.32 146.69
  L 294.67 145.03
  A 0.33 0.33 0.0 0 1 294.67 144.39
  L 300.32 142.73
  A 0.33 0.33 0.0 0 0 300.54 142.51
  L 302.20 136.86
  A 0.33 0.33 0.0 0 1 302.84 136.86
  L 304.50 142.51
  A 0.33 0.33 0.0 0 0 304.72 142.73
  Z"
/>
<path fill="#000000" d="
  M 210.53 147.38
  L 215.00 148.74
  A 0.31 0.31 0.0 0 1 215.01 149.33
  L 210.54 150.72
  A 0.31 0.31 0.0 0 0 210.34 150.93
  L 208.98 155.40
  A 0.31 0.31 0.0 0 1 208.39 155.41
  L 207.00 150.94
  A 0.31 0.31 0.0 0 0 206.79 150.74
  L 202.32 149.38
  A 0.31 0.31 0.0 0 1 202.31 148.79
  L 206.78 147.40
  A 0.31 0.31 0.0 0 0 206.98 147.19
  L 208.34 142.72
  A 0.31 0.31 0.0 0 1 208.93 142.71
  L 210.32 147.18
  A 0.31 0.31 0.0 0 0 210.53 147.38
  Z"
/>
<path fill="#000000" d="
  M 223.97 261.69
  Q 224.05 216.47 224.02 171.25
  Q 224.01 157.78 233.80 148.81
  C 248.75 135.11 270.66 143.28 276.63 161.34
  Q 278.20 166.09 278.33 176.32
  Q 278.74 209.28 278.31 242.23
  Q 278.30 242.74 278.81 242.79
  C 287.39 243.73 296.46 243.07 296.50 232.43
  Q 296.55 217.40 296.50 202.37
  Q 296.48 196.11 297.68 192.76
  C 303.63 176.23 325.22 177.39 330.98 193.39
  Q 332.20 196.78 332.23 203.90
  Q 332.30 222.83 332.21 241.77
  Q 332.15 255.27 325.27 265.14
  C 313.80 281.59 296.01 279.13 278.77 278.98
  A 0.26 0.25 0.0 0 0 278.51 279.23
  L 278.41 310.58
  Q 278.41 311.00 278.83 311.00
  L 312.52 311.00
  A 0.76 0.76 0.0 0 1 313.28 311.77
  L 313.17 354.79
  Q 313.17 355.42 313.80 355.45
  L 349.73 357.07
  Q 350.36 357.10 349.73 357.14
  Q 342.12 357.63 332.50 357.48
  C 327.07 357.39 320.91 358.18 315.74 358.23
  Q 264.67 358.70 247.00 358.73
  C 242.53 358.74 237.03 358.22 232.25 358.26
  Q 203.38 358.54 174.54 357.32
  A 0.26 0.26 0.0 0 1 174.51 356.81
  Q 180.91 355.66 187.42 355.54
  Q 188.26 355.53 188.26 354.69
  L 188.24 311.41
  A 0.41 0.41 0.0 0 1 188.65 311.00
  L 223.50 311.00
  A 0.50 0.50 0.0 0 0 224.00 310.50
  L 224.00 297.05
  A 0.41 0.41 0.0 0 0 223.58 296.64
  C 213.61 296.95 201.01 297.75 192.43 294.66
  C 178.94 289.79 170.91 276.50 170.83 262.19
  Q 170.68 235.72 170.73 209.25
  C 170.75 200.30 172.40 190.91 181.12 186.39
  C 190.96 181.28 202.75 186.73 206.48 196.89
  Q 207.74 200.34 207.74 207.88
  Q 207.74 229.16 207.77 250.43
  C 207.79 261.31 213.84 262.94 223.47 262.23
  Q 223.97 262.19 223.97 261.69
  Z
  M 260.23 158.81
  C 255.39 150.89 239.23 154.78 239.24 164.32
  Q 239.31 237.34 239.19 310.37
  Q 239.19 311.05 239.87 311.02
  L 242.14 310.94
  A 0.64 0.63 -0.9 0 0 242.76 310.31
  Q 242.74 239.91 242.76 169.50
  C 242.77 165.36 243.34 162.01 246.60 159.74
  C 250.87 156.75 256.18 158.80 258.17 163.35
  Q 259.00 165.27 259.00 169.29
  Q 259.00 239.85 259.00 310.42
  Q 259.00 311.00 259.58 311.00
  L 262.17 311.00
  Q 262.75 311.00 262.75 310.43
  Q 262.76 238.37 262.74 166.31
  Q 262.74 162.92 260.23 158.81
  Z
  M 279.05 254.33
  C 287.66 254.57 296.09 254.83 302.22 247.50
  Q 307.25 241.48 307.25 232.25
  Q 307.25 217.19 307.26 202.14
  Q 307.26 197.39 308.62 195.29
  C 311.22 191.27 318.55 192.18 320.54 196.73
  Q 321.26 198.38 321.25 201.88
  Q 321.24 220.80 321.26 239.75
  C 321.27 252.08 318.36 261.59 306.20 266.15
  C 298.75 268.93 287.16 267.96 278.79 268.04
  Q 278.25 268.05 278.25 268.59
  L 278.25 271.43
  Q 278.25 272.02 278.84 272.02
  C 286.94 271.96 297.55 273.12 305.02 270.90
  Q 325.19 264.92 325.11 241.74
  Q 325.04 220.28 324.98 198.81
  Q 324.97 196.42 323.08 193.36
  C 318.48 185.93 307.15 187.10 303.91 195.06
  Q 303.05 197.15 303.03 201.21
  Q 302.96 215.22 303.01 229.26
  Q 303.04 237.62 301.59 241.08
  C 297.49 250.81 288.14 249.89 278.77 250.02
  Q 278.25 250.02 278.25 250.54
  L 278.25 253.50
  A 0.83 0.83 0.0 0 0 279.05 254.33
  Z
  M 200.25 203.25
  C 200.12 190.87 183.93 187.72 178.80 198.51
  Q 177.75 200.73 177.75 205.16
  Q 177.73 232.32 177.77 259.48
  C 177.79 267.98 178.66 274.19 183.83 280.12
  Q 192.69 290.29 206.67 289.83
  Q 214.98 289.56 223.35 289.86
  Q 224.00 289.88 224.00 289.23
  L 224.00 286.08
  Q 224.00 285.54 223.46 285.57
  C 215.13 286.02 202.43 287.05 194.91 283.47
  C 184.73 278.63 181.89 269.66 181.83 259.00
  Q 181.69 233.53 181.81 208.07
  C 181.83 203.32 181.62 199.30 185.25 197.28
  C 190.27 194.48 196.76 197.53 196.76 203.75
  Q 196.73 229.03 196.77 254.30
  C 196.78 262.55 202.43 269.17 209.81 272.00
  C 213.90 273.56 218.89 273.35 223.45 273.30
  Q 224.04 273.29 224.02 272.70
  L 223.95 269.56
  Q 223.94 268.97 223.35 269.02
  C 208.93 270.36 200.49 264.51 200.49 249.67
  Q 200.49 226.47 200.25 203.25
  Z
  M 319.3067 211.5000
  A 1.35 1.35 0.0 0 0 319.2201 209.5928
  L 319.0576 209.4445
  A 1.35 1.35 0.0 0 0 317.1504 209.5311
  L 313.8733 213.1200
  A 1.35 1.35 0.0 0 0 313.9599 215.0272
  L 314.1224 215.1755
  A 1.35 1.35 0.0 0 0 316.0296 215.0889
  L 319.3067 211.5000
  Z
  M 187.5091 220.1104
  A 1.27 1.27 0.0 0 0 185.7157 220.0133
  L 185.3286 220.3606
  A 1.27 1.27 0.0 0 0 185.2315 222.1540
  L 188.6909 226.0096
  A 1.27 1.27 0.0 0 0 190.4843 226.1067
  L 190.8714 225.7594
  A 1.27 1.27 0.0 0 0 190.9685 223.9660
  L 187.5091 220.1104
  Z
  M 230.9376 317.8302
  A 1.25 1.25 0.0 0 0 229.1700 317.8055
  L 224.6822 322.1698
  A 1.25 1.25 0.0 0 0 224.6575 323.9374
  L 224.9224 324.2098
  A 1.25 1.25 0.0 0 0 226.6900 324.2345
  L 231.1778 319.8702
  A 1.25 1.25 0.0 0 0 231.2025 318.1026
  L 230.9376 317.8302
  Z
  M 302.0766 327.4703
  A 1.44 1.44 0.0 0 0 302.0517 325.4340
  L 301.9658 325.3502
  A 1.44 1.44 0.0 0 0 299.9295 325.3751
  L 295.5434 329.8697
  A 1.44 1.44 0.0 0 0 295.5683 331.9060
  L 295.6542 331.9898
  A 1.44 1.44 0.0 0 0 297.6905 331.9649
  L 302.0766 327.4703
  Z
  M 222.3238 334.3170
  A 1.06 1.06 0.0 0 0 222.2009 332.8230
  L 221.5908 332.3055
  A 1.06 1.06 0.0 0 0 220.0968 332.4284
  L 215.7762 337.5230
  A 1.06 1.06 0.0 0 0 215.8991 339.0170
  L 216.5092 339.5345
  A 1.06 1.06 0.0 0 0 218.0032 339.4116
  L 222.3238 334.3170
  Z
  M 287.39 341.87
  L 286.11 340.63
  A 0.53 0.53 0.0 0 0 285.36 340.64
  L 281.25 344.86
  A 1.78 1.36 -45.8 0 0 280.99 347.09
  L 281.07 347.17
  A 1.78 1.36 -45.8 0 0 283.29 346.84
  L 287.40 342.62
  A 0.53 0.53 0.0 0 0 287.39 341.87
  Z"
/>
<path fill="#000000" d="
  M 162.46 158.71
  A 0.09 0.08 -38.3 0 1 162.44 158.86
  Q 160.55 159.60 159.84 161.61
  A 0.39 0.39 0.0 0 1 159.10 161.58
  Q 158.58 159.71 156.73 159.05
  A 0.51 0.38 -35.3 0 1 157.00 158.23
  Q 158.94 157.75 159.11 155.66
  A 0.40 0.21 49.2 0 1 159.68 155.88
  Q 160.42 157.46 162.46 158.71
  Z"
/>
<path fill="#000000" d="
  M 373.51 214.97
  L 377.49 216.07
  A 0.34 0.34 0.0 0 1 377.49 216.73
  L 373.53 217.89
  A 0.34 0.34 0.0 0 0 373.30 218.12
  L 372.20 222.10
  A 0.34 0.34 0.0 0 1 371.54 222.10
  L 370.38 218.14
  A 0.34 0.34 0.0 0 0 370.15 217.91
  L 366.17 216.81
  A 0.34 0.34 0.0 0 1 366.17 216.15
  L 370.13 214.99
  A 0.34 0.34 0.0 0 0 370.36 214.76
  L 371.46 210.78
  A 0.34 0.34 0.0 0 1 372.12 210.78
  L 373.28 214.74
  A 0.34 0.34 0.0 0 0 373.51 214.97
  Z"
/>
<path fill="#000000" d="
  M 153.59 236.43
  L 157.38 237.54
  A 0.35 0.35 0.0 0 1 157.38 238.22
  L 153.59 239.33
  A 0.35 0.35 0.0 0 0 153.36 239.56
  L 152.25 243.35
  A 0.35 0.35 0.0 0 1 151.57 243.35
  L 150.46 239.56
  A 0.35 0.35 0.0 0 0 150.23 239.33
  L 146.44 238.22
  A 0.35 0.35 0.0 0 1 146.44 237.54
  L 150.23 236.43
  A 0.35 0.35 0.0 0 0 150.46 236.20
  L 151.57 232.41
  A 0.35 0.35 0.0 0 1 152.25 232.41
  L 153.36 236.20
  A 0.35 0.35 0.0 0 0 153.59 236.43
  Z"
/>
<path fill="#000000" d="
  M 353.50 270.95
  L 360.86 273.23
  A 0.33 0.33 0.0 0 1 360.87 273.86
  L 353.51 276.16
  A 0.33 0.33 0.0 0 0 353.30 276.37
  L 351.02 283.73
  A 0.33 0.33 0.0 0 1 350.39 283.74
  L 348.09 276.38
  A 0.33 0.33 0.0 0 0 347.88 276.17
  L 340.52 273.89
  A 0.33 0.33 0.0 0 1 340.51 273.26
  L 347.87 270.96
  A 0.33 0.33 0.0 0 0 348.08 270.75
  L 350.36 263.39
  A 0.33 0.33 0.0 0 1 350.99 263.38
  L 353.29 270.74
  A 0.33 0.33 0.0 0 0 353.50 270.95
  Z"
/>
<path fill="#000000" d="
  M 158.64 275.94
  L 159.15 274.42
  A 0.42 0.38 53.5 0 1 159.92 274.57
  Q 160.12 276.41 161.84 277.17
  A 0.50 0.41 -27.2 0 1 161.48 278.00
  Q 160.02 277.97 159.95 279.43
  A 0.44 0.42 -55.6 0 1 159.13 279.60
  Q 158.63 278.30 157.39 277.80
  Q 156.64 277.50 157.34 277.09
  L 158.08 276.65
  Q 158.49 276.40 158.64 275.94
  Z"
/>
<path fill="#000000" d="
  M 328.07 286.02
  L 330.63 286.87
  A 0.30 0.30 0.0 0 1 330.63 287.44
  L 328.05 288.26
  A 0.30 0.30 0.0 0 0 327.86 288.45
  L 327.01 291.01
  A 0.30 0.30 0.0 0 1 326.44 291.01
  L 325.62 288.43
  A 0.30 0.30 0.0 0 0 325.43 288.24
  L 322.87 287.39
  A 0.30 0.30 0.0 0 1 322.87 286.82
  L 325.45 286.00
  A 0.30 0.30 0.0 0 0 325.64 285.81
  L 326.49 283.25
  A 0.30 0.30 0.0 0 1 327.06 283.25
  L 327.88 285.83
  A 0.30 0.30 0.0 0 0 328.07 286.02
  Z"
/>
</svg>
